<?xml version="1.0" encoding="iso-8859-1"?>
<!-- Generator: Adobe Illustrator 19.0.0, SVG Export Plug-In . SVG Version: 6.00 Build 0)  -->
<svg version="1.1" id="Capa_1" xmlns="http://www.w3.org/2000/svg" xmlns:xlink="http://www.w3.org/1999/xlink" x="0px" y="0px"
	 viewBox="0 0 480 480" style="enable-background:new 0 0 480 480;" xml:space="preserve">
<path style="fill:#EBE5DD;" d="M168,7.998c-8.837,0-16,7.163-16,16v288c0,8.837,7.163,16,16,16s16-7.163,16-16v-288
	C184,15.161,176.837,7.998,168,7.998z"/>
<g>
	<path style="fill:#D9CCBC;" d="M24,79.998c-8.837,0-16,7.163-16,16s7.163,16,16,16h128v-32H24z"/>
	<path style="fill:#D9CCBC;" d="M24,223.998c-8.837,0-16,7.163-16,16c0,8.837,7.163,16,16,16h128v-32H24z"/>
</g>
<path style="fill:#B39A7C;" d="M424,95.998h-59.04c-10.945-42.389-49.181-72.004-92.96-72h-88v288h88
	c38.158,0.02,72.705-22.561,88-57.52v57.52c0,8.837,7.163,16,16,16h80c8.837,0,16-7.163,16-16v-168
	C472,117.488,450.51,95.998,424,95.998z M272,55.998c29.196-0.034,54.702,19.723,61.968,48
	C326.702,75.721,301.196,55.964,272,55.998z M440,167.998v-24c0-8.837-7.163-16-16-16c8.837,0,16,7.163,16,16V167.998z"/>
<g>
	<path style="fill:#231F20;" d="M424,87.998h-53.024c-13.858-42.945-53.85-72.037-98.976-72h-81.472
		c-4.393-12.473-18.066-19.023-30.539-14.629c-9.596,3.38-16.009,12.455-15.989,22.629v48H24c-13.255,0-24,10.745-24,24
		s10.745,24,24,24h120v96H24c-13.255,0-24,10.745-24,24c0,13.255,10.745,24,24,24h120v48c-0.025,13.224,10.675,23.964,23.899,23.989
		c10.174,0.019,19.249-6.393,22.629-15.989H272c30.909,0.004,60.221-13.728,80-37.48v29.48c0,13.255,10.745,24,24,24h16v144h16v-144
		h24v144h16v-144h8c13.255,0,24-10.745,24-24v-168C479.965,113.085,454.913,88.033,424,87.998z M24,103.998c-4.418,0-8-3.582-8-8
		s3.582-8,8-8h120v16H24z M24,247.998c-4.418,0-8-3.582-8-8s3.582-8,8-8h120v16H24z M168,319.998c-4.418,0-8-3.582-8-8v-288
		c0-4.418,3.582-8,8-8s8,3.582,8,8v288C176,316.416,172.418,319.998,168,319.998z M464,311.998c0,4.418-3.582,8-8,8h-80
		c-4.418,0-8-3.582-8-8v-57.52c-0.003-3.799-2.678-7.072-6.4-7.832c-0.527-0.108-1.062-0.164-1.6-0.168
		c-3.179,0.002-6.056,1.886-7.328,4.8c-14.023,32.044-45.693,52.741-80.672,52.72h-80v-272h80
		c40.14-0.042,75.208,27.118,85.208,65.992c0.909,3.538,4.099,6.01,7.752,6.008H424c22.08,0.026,39.974,17.92,40,40L464,311.998z"/>
	<path style="fill:#231F20;" d="M424,119.998h-19.856c-4.418,0-8,3.582-8,8c0,4.418,3.582,8,8,8H424c4.418,0,8,3.582,8,8v24
		c0,4.418,3.582,8,8,8s8-3.582,8-8v-24C448,130.743,437.255,119.998,424,119.998z"/>
	<path style="fill:#231F20;" d="M272,47.998c-4.418,0-8,3.582-8,8s3.582,8,8,8c25.529-0.038,47.841,17.224,54.216,41.944
		c0.906,3.538,4.092,6.013,7.744,6.016c0.672,0.001,1.342-0.085,1.992-0.256c4.279-1.098,6.857-5.457,5.76-9.736
		C333.524,70.169,304.835,47.958,272,47.998z"/>
	<path style="fill:#231F20;" d="M360,183.998c-4.418,0-8,3.582-8,8v32c0,4.418,3.582,8,8,8s8-3.582,8-8v-32
		C368,187.58,364.418,183.998,360,183.998z"/>
</g>
<g>
</g>
<g>
</g>
<g>
</g>
<g>
</g>
<g>
</g>
<g>
</g>
<g>
</g>
<g>
</g>
<g>
</g>
<g>
</g>
<g>
</g>
<g>
</g>
<g>
</g>
<g>
</g>
<g>
</g>
</svg>
