<?xml version="1.0" encoding="iso-8859-1"?>
<!-- Generator: Adobe Illustrator 19.0.0, SVG Export Plug-In . SVG Version: 6.00 Build 0)  -->
<svg version="1.1" id="Capa_1" xmlns="http://www.w3.org/2000/svg" xmlns:xlink="http://www.w3.org/1999/xlink" x="0px" y="0px"
	 viewBox="0 0 480.001 480.001" style="enable-background:new 0 0 480.001 480.001;" xml:space="preserve">
<g>
	<path style="fill:#EBE5DD;" d="M323.001,39.449c0.887-2.431,1.97-4.785,3.24-7.04C324.973,34.665,323.889,37.019,323.001,39.449z"
		/>
	<path style="fill:#EBE5DD;" d="M326.641,31.745c1.29-2.223,2.756-4.339,4.384-6.328C329.401,27.409,327.936,29.525,326.641,31.745z
		"/>
	<path style="fill:#EBE5DD;" d="M331.201,25.201c1.571-1.864,3.283-3.605,5.12-5.208C334.485,21.598,332.774,23.339,331.201,25.201z
		"/>
	<path style="fill:#EBE5DD;" d="M320.729,48.001c0.449-2.722,1.137-5.399,2.056-8C321.867,42.602,321.179,45.279,320.729,48.001z"/>
	<path style="fill:#EBE5DD;" d="M337.137,19.281c1.825-1.518,3.758-2.9,5.784-4.136C340.896,16.383,338.963,17.765,337.137,19.281z"
		/>
	<path style="fill:#EBE5DD;" d="M344.153,14.401c2.054-1.18,4.193-2.204,6.4-3.064C348.345,12.195,346.205,13.219,344.153,14.401z"
		/>
	<path style="fill:#EBE5DD;" d="M351.849,10.857c2.318-0.843,4.699-1.504,7.12-1.976C356.547,9.353,354.167,10.014,351.849,10.857z"
		/>
	<path style="fill:#EBE5DD;" d="M368.001,8.001c-2.682,0.016-5.359,0.26-8,0.728C362.642,8.265,365.318,8.021,368.001,8.001z"/>
</g>
<path style="fill:#C49A6C;" d="M64.001,48.001h-40c-8.826,0.026-15.974,7.174-16,16c0.065,8.809,7.191,15.935,16,16h40V48.001z"/>
<path style="fill:#EBE5DD;" d="M320.721,48.001c-0.465,2.642-0.705,5.318-0.72,8C319.993,53.318,320.234,50.64,320.721,48.001z"/>
<path style="fill:#FFDE55;" d="M64.001,264.001h256v32h-256V264.001z"/>
<g>
	<path style="fill:#FFEB99;" d="M320.001,80.001v-32h0.72c0.453-2.722,1.143-5.399,2.064-8l0.216-0.584
		c0.888-2.43,1.972-4.784,3.24-7.04c0.128-0.224,0.272-0.44,0.4-0.664c1.295-2.22,2.761-4.336,4.384-6.328l0.176-0.184
		c1.573-1.862,3.285-3.603,5.12-5.208c0.272-0.232,0.512-0.48,0.8-0.712c1.826-1.516,3.759-2.898,5.784-4.136
		c0.408-0.248,0.8-0.504,1.232-0.744c2.053-1.182,4.192-2.206,6.4-3.064c0.44-0.176,0.872-0.328,1.312-0.48
		c2.318-0.843,4.699-1.504,7.12-1.976c0.328-0.064,0.664-0.096,1-0.152c2.652-0.47,5.339-0.714,8.032-0.728h-256
		c-26.51,0-48,21.49-48,48v208h256L320.001,80.001z"/>
	<path style="fill:#FFEB99;" d="M320.001,296.001h-256v64h96h160V296.001z"/>
</g>
<path style="fill:#EBE5DD;" d="M320.001,48.001v8c0.015-2.682,0.255-5.358,0.72-8H320.001z"/>
<path style="fill:#C49A6C;" d="M456.001,48.001h-135.28c-0.486,2.639-0.727,5.317-0.72,8v24h136c8.826-0.026,15.974-7.174,16-16
	C471.935,55.192,464.81,48.066,456.001,48.001z"/>
<path style="fill:#EBE5DD;" d="M320.721,48.025v-0.024V48.025z"/>
<path style="fill:#FFDE55;" d="M358.969,8.881c-2.421,0.472-4.802,1.133-7.12,1.976c-0.44,0.152-0.88,0.304-1.312,0.48
	c-2.207,0.86-4.346,1.884-6.4,3.064c-0.416,0.24-0.8,0.496-1.232,0.744c-2.026,1.236-3.959,2.618-5.784,4.136
	c-0.272,0.232-0.52,0.48-0.8,0.712c-1.837,1.603-3.549,3.344-5.12,5.208l-0.208,0.216c-1.628,1.989-3.094,4.105-4.384,6.328
	c-0.128,0.224-0.272,0.44-0.4,0.664c-1.27,2.255-2.353,4.609-3.24,7.04l-0.184,0.552c-0.919,2.601-1.607,5.278-2.056,8h94.552
	c-1.57-9.846-6.252-18.929-13.36-25.92c-8.965-9.046-21.184-14.119-33.92-14.08c-2.682,0.02-5.358,0.264-8,0.728
	C359.633,8.801,359.297,8.801,358.969,8.881L358.969,8.881z"/>
<g>
	<path style="fill:#EBE5DD;" d="M336.353,20.001c0.264-0.232,0.512-0.48,0.8-0.712C336.865,19.513,336.625,19.761,336.353,20.001z"
		/>
	<path style="fill:#EBE5DD;" d="M331.025,25.417l0.176-0.216L331.025,25.417z"/>
	<path style="fill:#EBE5DD;" d="M358.969,8.881c0.328-0.064,0.664-0.096,1-0.152C359.633,8.801,359.297,8.801,358.969,8.881z"/>
	<path style="fill:#EBE5DD;" d="M326.241,32.409c0.128-0.224,0.272-0.44,0.4-0.664C326.513,32.001,326.401,32.185,326.241,32.409z"
		/>
	<path style="fill:#EBE5DD;" d="M320.721,48.001l0.008-0.016L320.721,48.001z"/>
	<path style="fill:#EBE5DD;" d="M342.921,15.145c0.408-0.248,0.8-0.504,1.232-0.744C343.737,14.641,343.329,14.897,342.921,15.145z"
		/>
	<path style="fill:#EBE5DD;" d="M322.785,40.001l0.216-0.584L322.785,40.001z"/>
	<path style="fill:#EBE5DD;" d="M350.537,11.337c0.432-0.176,0.872-0.328,1.312-0.48C351.409,11.009,350.977,11.201,350.537,11.337z
		"/>
</g>
<path style="fill:#FFEB99;" d="M320.001,264.001v96h-160v80v32h256v-392h-96V264.001z"/>
<g>
	<path style="fill:#231F20;" d="M473.009,47.137c-4.462-4.594-10.604-7.17-17.008-7.136h-34.4
		c-2.567-8.912-7.37-17.019-13.952-23.552C397.183,5.857,382.891-0.072,368.001,0.001h-256c-24.733,0.053-46.511,16.304-53.6,40
		h-34.4c-13.255,0-24,10.745-24,24c-0.048,6.336,2.475,12.421,6.992,16.864c4.463,4.592,10.604,7.168,17.008,7.136h32v272
		c0,4.418,3.582,8,8,8h88v104c0,4.418,3.582,8,8,8h256c4.418,0,8-3.582,8-8v-384h32c13.255,0,24-10.745,24-24
		C480.048,57.665,477.526,51.58,473.009,47.137z M404.697,40.001h-73.304c0.926-2.134,2.04-4.183,3.328-6.12
		c0.136-0.216,0.304-0.408,0.448-0.624c1.288-1.86,2.73-3.607,4.312-5.224l0.472-0.488c3.513-3.455,7.629-6.237,12.144-8.208
		c0.36-0.152,0.728-0.272,1.088-0.416c1.86-0.735,3.772-1.331,5.72-1.784c0.592-0.136,1.176-0.288,1.768-0.392
		c12.974-2.57,26.37,1.575,35.624,11.024C399.853,31.272,402.705,35.424,404.697,40.001z M72.001,265.361
		c3.08,1.237,5.953,2.937,8.52,5.04c15.067,12.802,37.189,12.802,52.256,0c9.36-8.534,23.68-8.534,33.04,0
		c15.064,12.8,37.184,12.8,52.248,0c9.382-8.534,23.714-8.534,33.096,0c15.079,12.8,37.209,12.8,52.288,0
		c2.579-2.106,5.462-3.808,8.552-5.048v15.4c-6.684,1.41-12.917,4.45-18.144,8.848c-9.384,8.535-23.72,8.535-33.104,0
		c-15.079-12.8-37.209-12.8-52.288,0c-9.363,8.535-23.685,8.535-33.048,0c-15.064-12.8-37.184-12.8-52.248,0
		c-9.36,8.534-23.68,8.534-33.04,0c-5.224-4.394-11.45-7.433-18.128-8.848L72.001,265.361z M112.001,16.001h216.752
		c-5.08,4.982-9.154,10.895-12,17.416c-0.248,0.568-0.472,1.144-0.704,1.72c-0.36,0.92-0.712,1.832-1.032,2.776
		s-0.632,1.968-0.912,2.968c-0.144,0.528-0.28,1.056-0.416,1.6s-0.24,0.856-0.336,1.296c-0.851,1.247-1.32,2.715-1.352,4.224
		v200.752c-6.684,1.41-12.917,4.45-18.144,8.848c-9.384,8.535-23.72,8.535-33.104,0c-15.079-12.8-37.209-12.8-52.288,0
		c-9.363,8.535-23.685,8.535-33.048,0c-15.064-12.8-37.184-12.8-52.248,0c-9.36,8.534-23.68,8.534-33.04,0
		c-5.224-4.394-11.45-7.433-18.128-8.848V56.001C72.027,33.921,89.92,16.027,112.001,16.001L112.001,16.001z M24.001,72.001
		c-2.156,0.007-4.218-0.879-5.696-2.448c-1.493-1.459-2.325-3.465-2.304-5.552c0-4.418,3.582-8,8-8h32v16H24.001z M72.001,297.361
		c3.08,1.237,5.953,2.937,8.52,5.04c15.067,12.802,37.189,12.802,52.256,0c9.36-8.534,23.68-8.534,33.04,0
		c15.064,12.8,37.184,12.8,52.248,0c9.382-8.534,23.714-8.534,33.096,0c15.079,12.8,37.209,12.8,52.288,0
		c2.579-2.106,5.462-3.808,8.552-5.048v54.648h-240V297.361z M408.001,464.001h-240v-16h168c4.418,0,8-3.582,8-8s-3.582-8-8-8h-168
		v-64h152c4.418,0,8-3.582,8-8v-272h80V464.001z M456.001,72.001h-128v-16h128c2.156-0.007,4.218,0.879,5.696,2.448
		c1.493,1.459,2.325,3.465,2.304,5.552C464.001,68.419,460.419,72.001,456.001,72.001z"/>
	<path style="fill:#231F20;" d="M368.001,448.001h16c4.418,0,8-3.582,8-8s-3.582-8-8-8h-16c-4.418,0-8,3.582-8,8
		S363.582,448.001,368.001,448.001z"/>
</g>
<g>
</g>
<g>
</g>
<g>
</g>
<g>
</g>
<g>
</g>
<g>
</g>
<g>
</g>
<g>
</g>
<g>
</g>
<g>
</g>
<g>
</g>
<g>
</g>
<g>
</g>
<g>
</g>
<g>
</g>
</svg>
